<svg width="227" height="46" viewBox="0 0 227 46" fill="none" xmlns="http://www.w3.org/2000/svg">
<rect width="227" height="46" fill="white"/>
<path d="M93.76 3.272V1.48H106.176V3.272L102.656 3.72C101.973 3.80533 101.568 3.99733 101.44 4.296C101.312 4.552 101.248 5.40533 101.248 6.856V45H97.728L74.24 7.048V39.624C74.24 41.0747 74.304 41.9493 74.432 42.248C74.56 42.504 74.9653 42.6747 75.648 42.76L79.168 43.208V45H66.752V43.208L70.272 42.76C70.9547 42.6747 71.36 42.504 71.488 42.248C71.616 41.9493 71.68 41.0747 71.68 39.624V6.856C71.68 5.40533 71.616 4.552 71.488 4.296C71.36 3.99733 70.9547 3.80533 70.272 3.72L66.752 3.272V1.48H79.616L98.688 32.136V6.856C98.688 5.40533 98.624 4.552 98.496 4.296C98.368 3.99733 97.9627 3.80533 97.28 3.72L93.76 3.272ZM146.85 21.192V25.224C146.85 31.7947 145.378 36.8507 142.434 40.392C139.532 43.8907 135.223 45.64 129.506 45.64C123.788 45.64 119.458 43.8907 116.514 40.392C113.612 36.8507 112.161 31.7947 112.161 25.224V21.192C112.161 14.6213 113.612 9.58666 116.514 6.088C119.458 2.58933 123.788 0.839996 129.506 0.839996C135.223 0.839996 139.532 2.58933 142.434 6.088C145.378 9.58666 146.85 14.6213 146.85 21.192ZM138.658 17.992C138.658 14.2373 138.338 11.2933 137.698 9.16C137.058 6.984 136.055 5.42667 134.69 4.488C133.367 3.54933 131.639 3.08 129.506 3.08C127.415 3.08 125.687 3.54933 124.322 4.488C122.956 5.42667 121.954 6.984 121.314 9.16C120.674 11.2933 120.354 14.2373 120.354 17.992V28.424C120.354 32.136 120.674 35.08 121.314 37.256C121.954 39.432 122.956 41.0107 124.322 41.992C125.687 42.9307 127.415 43.4 129.506 43.4C131.639 43.4 133.367 42.9307 134.69 41.992C136.055 41.0107 137.058 39.432 137.698 37.256C138.338 35.08 138.658 32.136 138.658 28.424V17.992ZM184.261 6.856L172.165 45H166.661L154.501 6.856C154.202 5.87467 153.968 5.192 153.797 4.808C153.626 4.38133 153.434 4.104 153.221 3.976C153.008 3.848 152.666 3.76266 152.197 3.72L148.677 3.272V1.48H166.469V3.272L162.949 3.72C162.266 3.80533 161.904 3.99733 161.861 4.296C161.818 4.552 162.01 5.40533 162.437 6.856L172.165 37.384L181.765 6.856C182.234 5.40533 182.426 4.552 182.341 4.296C182.298 3.99733 181.936 3.80533 181.253 3.72L177.733 3.272V1.48H190.021V3.272L186.501 3.72C186.074 3.76266 185.754 3.848 185.541 3.976C185.328 4.104 185.136 4.38133 184.965 4.808C184.794 5.192 184.56 5.87467 184.261 6.856ZM197.031 43.208V45H184.678V43.208L188.199 42.76C188.668 42.6747 189.009 42.5893 189.223 42.504C189.436 42.376 189.628 42.0987 189.799 41.672C189.969 41.2453 190.204 40.5627 190.503 39.624L202.727 1.48H208.231L220.519 39.624C220.817 40.5627 221.052 41.2453 221.222 41.672C221.393 42.0987 221.585 42.376 221.799 42.504C222.055 42.5893 222.396 42.6747 222.823 42.76L226.343 43.208V45H208.679V43.208L212.199 42.76C212.881 42.6747 213.244 42.504 213.287 42.248C213.372 41.9493 213.18 41.0747 212.711 39.624L210.279 31.688H195.495L192.999 39.624C192.572 41.0747 192.38 41.9493 192.423 42.248C192.465 42.504 192.828 42.6747 193.51 42.76L197.031 43.208ZM196.263 29.448H209.575L202.983 8.2L196.263 29.448Z" fill="black"/>
<path d="M6.024 35.464L4.368 35.08C3.296 34.824 2.496 34.368 1.968 33.712C1.456 33.04 1.2 32.248 1.2 31.336C1.2 30.664 1.344 30.048 1.632 29.488C1.936 28.912 2.408 28.456 3.048 28.12C3.688 27.768 4.52 27.592 5.544 27.592C6.648 27.592 7.544 27.768 8.232 28.12C8.92 28.472 9.408 28.936 9.696 29.512C9.984 30.088 10.072 30.704 9.96 31.36L7.32 31.84C7.544 30.752 7.48 29.912 7.128 29.32C6.792 28.728 6.224 28.432 5.424 28.432C4.864 28.432 4.4 28.6 4.032 28.936C3.664 29.256 3.48 29.72 3.48 30.328C3.48 30.888 3.64 31.384 3.96 31.816C4.28 32.232 4.752 32.512 5.376 32.656L7.032 33.04C8.216 33.312 9.072 33.744 9.6 34.336C10.128 34.912 10.392 35.632 10.392 36.496C10.392 37.568 9.992 38.464 9.192 39.184C8.408 39.888 7.232 40.24 5.664 40.24C5.12 40.24 4.52 40.16 3.864 40C3.224 39.824 2.632 39.512 2.088 39.064C1.56 38.616 1.176 37.976 0.936 37.144L2.496 36.52C2.608 37.576 2.968 38.32 3.576 38.752C4.2 39.184 4.896 39.4 5.664 39.4C6.384 39.4 6.968 39.24 7.416 38.92C7.88 38.584 8.112 38.104 8.112 37.48C8.112 37.048 7.96 36.656 7.656 36.304C7.368 35.936 6.824 35.656 6.024 35.464ZM25.6913 39.328V40H21.2273V37.888C20.7793 38.704 20.2033 39.304 19.4993 39.688C18.7953 40.056 18.0833 40.24 17.3633 40.24C16.2273 40.24 15.3233 39.864 14.6513 39.112C13.9793 38.344 13.6433 37.28 13.6433 35.92V29.848C13.6433 29.304 13.6193 28.984 13.5713 28.888C13.5233 28.776 13.3713 28.704 13.1152 28.672L11.7953 28.504V27.832H16.4033V35.896C16.4033 37 16.5553 37.808 16.8593 38.32C17.1793 38.816 17.6353 39.064 18.2273 39.064C18.4833 39.064 18.7793 39 19.1153 38.872C19.4673 38.728 19.8193 38.48 20.1713 38.128C20.5233 37.76 20.8273 37.24 21.0833 36.568V29.848C21.0833 29.304 21.0593 28.976 21.0113 28.864C20.9633 28.752 20.8113 28.688 20.5553 28.672L18.7553 28.504V27.832H23.8433V37.984C23.8433 38.528 23.8673 38.856 23.9153 38.968C23.9633 39.064 24.1153 39.128 24.3713 39.16L25.6913 39.328ZM26.4699 28.504V27.832H30.9339V29.824C31.3979 29.072 31.9019 28.512 32.4459 28.144C32.9899 27.776 33.6379 27.592 34.3899 27.592C35.7339 27.592 36.7979 28.128 37.5819 29.2C38.3819 30.256 38.7819 31.744 38.7819 33.664V34.144C38.7819 36 38.3259 37.48 37.4139 38.584C36.5019 39.688 35.2379 40.24 33.6219 40.24C32.6619 40.24 31.8139 40 31.0779 39.52V43.096C31.0779 43.64 31.1019 43.96 31.1499 44.056C31.1979 44.168 31.3499 44.24 31.6059 44.272L33.4059 44.44V45.112H26.4699V44.44L27.7899 44.272C28.0459 44.24 28.1979 44.168 28.2459 44.056C28.2939 43.96 28.3179 43.64 28.3179 43.096V29.848C28.3179 29.304 28.2939 28.984 28.2459 28.888C28.1979 28.776 28.0459 28.704 27.7899 28.672L26.4699 28.504ZM33.7659 28.648C33.3659 28.648 32.9419 28.816 32.4939 29.152C32.0619 29.472 31.5899 30.136 31.0779 31.144V38.392C31.6859 39 32.4299 39.304 33.3099 39.304C34.2059 39.304 34.8459 38.912 35.2299 38.128C35.6299 37.328 35.8299 36.24 35.8299 34.864V32.944C35.8299 31.456 35.6459 30.368 35.2779 29.68C34.9099 28.992 34.4059 28.648 33.7659 28.648ZM51.501 37.144C51.213 38.264 50.677 39.064 49.893 39.544C49.109 40.008 48.197 40.24 47.157 40.24C45.237 40.24 43.797 39.688 42.837 38.584C41.877 37.464 41.397 35.984 41.397 34.144V33.664C41.397 31.824 41.845 30.352 42.741 29.248C43.653 28.144 44.965 27.592 46.677 27.592C47.637 27.592 48.485 27.784 49.221 28.168C49.973 28.536 50.557 29.072 50.973 29.776C51.405 30.48 51.621 31.336 51.621 32.344C51.621 32.584 51.605 32.84 51.573 33.112C51.557 33.384 51.517 33.656 51.453 33.928H44.349V34.624C44.349 36.32 44.589 37.544 45.069 38.296C45.549 39.032 46.325 39.4 47.397 39.4C48.085 39.4 48.669 39.2 49.149 38.8C49.629 38.384 49.901 37.688 49.965 36.712L51.501 37.144ZM46.677 28.432C45.893 28.432 45.309 28.792 44.925 29.512C44.541 30.232 44.349 31.424 44.349 33.088H48.693C48.757 32.768 48.797 32.472 48.813 32.2C48.845 31.912 48.861 31.648 48.861 31.408C48.861 30.384 48.661 29.632 48.261 29.152C47.861 28.672 47.333 28.432 46.677 28.432ZM53.3801 28.504V27.832H57.8441V29.8C58.8201 28.328 59.9801 27.592 61.3241 27.592C61.8201 27.592 62.3001 27.752 62.7641 28.072C63.2281 28.376 63.6121 28.952 63.9161 29.8L61.7801 30.952C61.5561 30.296 61.2921 29.856 60.9881 29.632C60.7001 29.392 60.3881 29.272 60.0521 29.272C59.7001 29.272 59.3561 29.384 59.0201 29.608C58.6841 29.832 58.3401 30.248 57.9881 30.856V37.984C57.9881 38.528 58.0121 38.856 58.0601 38.968C58.1081 39.064 58.2601 39.128 58.5161 39.16L60.3161 39.328V40H53.3801V39.328L54.7001 39.16C54.9561 39.128 55.1081 39.064 55.1561 38.968C55.2041 38.856 55.2281 38.528 55.2281 37.984V29.848C55.2281 29.304 55.2041 28.984 55.1561 28.888C55.1081 28.776 54.9561 28.704 54.7001 28.672L53.3801 28.504Z" fill="black"/>
</svg>
